<?xml version="1.0" encoding="UTF-8"?>
<svg id="a" data-name="Ebene 1" xmlns="http://www.w3.org/2000/svg" viewBox="0 0 117.47 38.65">
  <path d="M9.44,38.06H2.44V5.12h7v2.62h-3.67v27.69h3.67v2.64Z" fill="#5b78ff"/>
  <path d="M17.14,9.62h-2.29V3.01h2.29v6.61Z" fill="#5b78ff"/>
  <path d="M39.97,12.23l-1.86,5.06c-.57,1.57-1.56,2.58-2.97,3.02v.05c1.29.26,2.31.84,3.06,1.75.75.91,1.12,2.03,1.12,3.37,0,3.6-2.21,5.4-6.63,5.4h-8.26V12.23h3.32v7.56h2.83c.96,0,1.8-.28,2.51-.83.83-.64,1.38-1.34,1.65-2.07l1.67-4.66h3.55ZM35.89,25.49c0-2.05-1.46-3.08-4.38-3.08h-3.76v5.87h4.13c2.67,0,4.01-.93,4.01-2.79Z" fill="#5b78ff"/>
  <path d="M47,8.7h-3.32v-3.59h3.32v3.59ZM47,30.88h-3.32V12.23h3.32v18.65Z" fill="#5b78ff"/>
  <path d="M56.25,12.23l-1.58,3.6h-.44l-1.58-3.6h3.6ZM56.25,30.88h-3.6l1.58-3.6h.44l1.58,3.6Z" fill="#5b78ff"/>
  <path d="M66.25,30.88h-3.6v-3.6h3.6v3.6Z" fill="#5b78ff"/>
  <path d="M87.31,30.88h-3.96l-6.06-9.47-2.07,2.06v7.42h-3.32V5.12h3.32v14.61l7.19-7.49h4.18l-7.07,6.94,7.79,11.71Z" fill="#5b78ff"/>
  <path d="M101.71,28.97c-1.69,1.57-3.86,2.36-6.52,2.36-1.85,0-3.38-.5-4.57-1.5s-1.79-2.29-1.79-3.88c0-4.36,3.76-6.54,11.27-6.54h1.62c0-1.34-.07-2.31-.21-2.91s-.53-1.1-1.18-1.5-1.67-.6-3.08-.6c-2.95,0-4.48,1.05-4.57,3.16h-3.3c.25-3.83,2.93-5.75,8.05-5.75,2.39,0,4.25.47,5.59,1.42s2,2.81,2,5.59v12.06h-3.3v-1.92ZM101.71,25.98v-4.13h-2.27c-4.8,0-7.21,1.31-7.21,3.92,0,.95.35,1.68,1.05,2.19s1.65.76,2.85.76c1.09,0,2.14-.25,3.16-.74s1.82-1.16,2.41-2Z" fill="#5b78ff"/>
  <path d="M115.03,38.06h-6.98v-2.64h3.67V7.73h-3.67v-2.62h6.98v32.94Z" fill="#5b78ff"/>
</svg>